<svg width="104" height="26" viewBox="0 0 104 26" fill="none" xmlns="http://www.w3.org/2000/svg">
<path d="M30.1361 9.336C30.6641 9.336 31.0961 9.416 31.4321 9.576C31.7761 9.728 32.0801 9.908 32.3441 10.116C32.5041 10.236 32.6241 10.252 32.7041 10.164C32.7921 10.068 32.8521 9.848 32.8841 9.504H33.1601C33.1441 9.8 33.1321 10.16 33.1241 10.584C33.1161 11.008 33.1121 11.568 33.1121 12.264H32.8361C32.7801 11.92 32.7281 11.648 32.6801 11.448C32.6321 11.24 32.5721 11.064 32.5001 10.92C32.4361 10.776 32.3481 10.632 32.2361 10.488C31.9881 10.16 31.6761 9.924 31.3001 9.78C30.9241 9.628 30.5281 9.552 30.1121 9.552C29.7201 9.552 29.3641 9.652 29.0441 9.852C28.7321 10.044 28.4601 10.324 28.2281 10.692C28.0041 11.06 27.8281 11.504 27.7001 12.024C27.5801 12.544 27.5201 13.128 27.5201 13.776C27.5201 14.448 27.5881 15.044 27.7241 15.564C27.8601 16.076 28.0481 16.508 28.2881 16.86C28.5361 17.212 28.8241 17.48 29.1521 17.664C29.4881 17.84 29.8481 17.928 30.2321 17.928C30.5921 17.928 30.9681 17.856 31.3601 17.712C31.7521 17.568 32.0601 17.336 32.2841 17.016C32.4601 16.784 32.5801 16.532 32.6441 16.26C32.7161 15.988 32.7801 15.608 32.8361 15.12H33.1121C33.1121 15.848 33.1161 16.436 33.1241 16.884C33.1321 17.324 33.1441 17.696 33.1601 18H32.8841C32.8521 17.656 32.7961 17.44 32.7161 17.352C32.6441 17.264 32.5201 17.276 32.3441 17.388C32.0481 17.596 31.7321 17.78 31.3961 17.94C31.0681 18.092 30.6441 18.168 30.1241 18.168C29.3641 18.168 28.6961 17.996 28.1201 17.652C27.5521 17.308 27.1081 16.812 26.7881 16.164C26.4761 15.516 26.3201 14.736 26.3201 13.824C26.3201 12.928 26.4841 12.144 26.8121 11.472C27.1401 10.8 27.5881 10.276 28.1561 9.9C28.7321 9.524 29.3921 9.336 30.1361 9.336ZM40.0778 9.336C40.8378 9.336 41.5018 9.508 42.0698 9.852C42.6458 10.196 43.0898 10.692 43.4018 11.34C43.7218 11.98 43.8818 12.76 43.8818 13.68C43.8818 14.576 43.7178 15.36 43.3898 16.032C43.0698 16.704 42.6218 17.228 42.0458 17.604C41.4698 17.98 40.8098 18.168 40.0658 18.168C39.3058 18.168 38.6378 17.996 38.0618 17.652C37.4938 17.308 37.0498 16.812 36.7298 16.164C36.4178 15.516 36.2618 14.736 36.2618 13.824C36.2618 12.928 36.4258 12.144 36.7538 11.472C37.0818 10.8 37.5298 10.276 38.0978 9.9C38.6738 9.524 39.3338 9.336 40.0778 9.336ZM40.0298 9.552C39.5098 9.552 39.0578 9.732 38.6738 10.092C38.2898 10.452 37.9898 10.948 37.7738 11.58C37.5658 12.212 37.4618 12.944 37.4618 13.776C37.4618 14.624 37.5778 15.364 37.8098 15.996C38.0498 16.62 38.3698 17.104 38.7698 17.448C39.1778 17.784 39.6258 17.952 40.1138 17.952C40.6338 17.952 41.0858 17.772 41.4698 17.412C41.8538 17.052 42.1498 16.556 42.3578 15.924C42.5738 15.284 42.6818 14.552 42.6818 13.728C42.6818 12.872 42.5618 12.132 42.3218 11.508C42.0898 10.884 41.7738 10.404 41.3738 10.068C40.9738 9.724 40.5258 9.552 40.0298 9.552ZM54.1466 9.504V9.744C53.8746 9.752 53.6666 9.792 53.5226 9.864C53.3866 9.936 53.2946 10.052 53.2466 10.212C53.1986 10.372 53.1746 10.6 53.1746 10.896V18.06C53.1266 18.06 53.0786 18.06 53.0306 18.06C52.9906 18.06 52.9466 18.06 52.8986 18.06L47.8586 10.272V16.608C47.8586 16.896 47.8826 17.124 47.9306 17.292C47.9866 17.452 48.0906 17.568 48.2426 17.64C48.4026 17.704 48.6386 17.744 48.9506 17.76V18C48.8066 17.984 48.6186 17.976 48.3866 17.976C48.1546 17.968 47.9346 17.964 47.7266 17.964C47.5266 17.964 47.3226 17.968 47.1146 17.976C46.9146 17.976 46.7466 17.984 46.6106 18V17.76C46.8826 17.744 47.0866 17.704 47.2226 17.64C47.3666 17.568 47.4626 17.452 47.5106 17.292C47.5586 17.124 47.5826 16.896 47.5826 16.608V10.776C47.5826 10.48 47.5586 10.264 47.5106 10.128C47.4626 9.984 47.3666 9.888 47.2226 9.84C47.0866 9.784 46.8826 9.752 46.6106 9.744V9.504C46.7466 9.512 46.9146 9.52 47.1146 9.528C47.3226 9.536 47.5266 9.54 47.7266 9.54C47.9026 9.54 48.0706 9.536 48.2306 9.528C48.3906 9.52 48.5346 9.512 48.6626 9.504L52.8986 16.032V10.896C52.8986 10.6 52.8706 10.372 52.8146 10.212C52.7666 10.052 52.6626 9.936 52.5026 9.864C52.3506 9.792 52.1186 9.752 51.8066 9.744V9.504C51.9506 9.512 52.1386 9.52 52.3706 9.528C52.6106 9.536 52.8306 9.54 53.0306 9.54C53.2386 9.54 53.4426 9.536 53.6426 9.528C53.8506 9.52 54.0186 9.512 54.1466 9.504ZM65.1532 18.276L65.3332 18.348C65.2372 18.676 65.1252 18.948 64.9972 19.164C64.8772 19.388 64.7372 19.572 64.5772 19.716C64.4252 19.852 64.2172 19.976 63.9532 20.088C63.6972 20.2 63.3652 20.256 62.9572 20.256C62.5332 20.256 62.1212 20.184 61.7212 20.04C61.3292 19.904 60.9212 19.736 60.4972 19.536C60.0732 19.336 59.6052 19.152 59.0932 18.984C59.0372 18.968 58.9852 18.952 58.9372 18.936C58.8892 18.92 58.8452 18.908 58.8052 18.9C58.6532 18.956 58.4892 19 58.3132 19.032C58.1372 19.064 57.9692 19.08 57.8092 19.08C57.6492 19.08 57.5172 19.06 57.4132 19.02C57.3092 18.98 57.2572 18.92 57.2572 18.84C57.2572 18.672 57.4732 18.588 57.9052 18.588C58.1852 18.588 58.4852 18.62 58.8052 18.684C59.0932 18.604 59.3412 18.512 59.5492 18.408C59.7572 18.312 59.9692 18.22 60.1852 18.132C60.4092 18.044 60.6772 17.988 60.9892 17.964L61.0012 18.156C60.7612 18.18 60.5532 18.224 60.3772 18.288C60.2012 18.36 60.0252 18.436 59.8492 18.516C59.6732 18.596 59.4652 18.672 59.2252 18.744C59.6252 18.824 60.0612 18.908 60.5332 18.996C61.0052 19.084 61.4612 19.16 61.9012 19.224C62.3412 19.288 62.7172 19.32 63.0292 19.32C63.6052 19.32 64.0572 19.236 64.3852 19.068C64.7212 18.9 64.9772 18.636 65.1532 18.276ZM60.6292 9.336C61.3892 9.336 62.0532 9.508 62.6212 9.852C63.1972 10.196 63.6412 10.692 63.9532 11.34C64.2732 11.98 64.4332 12.76 64.4332 13.68C64.4332 14.576 64.2692 15.36 63.9412 16.032C63.6212 16.704 63.1732 17.228 62.5972 17.604C62.0212 17.98 61.3612 18.168 60.6172 18.168C59.8572 18.168 59.1892 17.996 58.6132 17.652C58.0452 17.308 57.6012 16.812 57.2812 16.164C56.9692 15.516 56.8132 14.736 56.8132 13.824C56.8132 12.928 56.9772 12.144 57.3052 11.472C57.6332 10.8 58.0812 10.276 58.6492 9.9C59.2252 9.524 59.8852 9.336 60.6292 9.336ZM60.5812 9.552C60.0612 9.552 59.6092 9.732 59.2252 10.092C58.8412 10.452 58.5412 10.948 58.3252 11.58C58.1172 12.212 58.0132 12.944 58.0132 13.776C58.0132 14.624 58.1292 15.364 58.3612 15.996C58.6012 16.62 58.9212 17.104 59.3212 17.448C59.7292 17.784 60.1772 17.952 60.6652 17.952C61.1852 17.952 61.6372 17.772 62.0212 17.412C62.4052 17.052 62.7012 16.556 62.9092 15.924C63.1252 15.284 63.2332 14.552 63.2332 13.728C63.2332 12.872 63.1132 12.132 62.8732 11.508C62.6412 10.884 62.3252 10.404 61.9252 10.068C61.5252 9.724 61.0772 9.552 60.5812 9.552ZM74.5414 9.504V9.744C74.2694 9.752 74.0614 9.792 73.9174 9.864C73.7814 9.936 73.6894 10.052 73.6414 10.212C73.5934 10.372 73.5694 10.6 73.5694 10.896V14.508C73.5694 15.068 73.5334 15.556 73.4614 15.972C73.3894 16.388 73.2614 16.748 73.0774 17.052C72.8774 17.388 72.5854 17.66 72.2014 17.868C71.8174 18.068 71.3774 18.168 70.8814 18.168C70.4974 18.168 70.1294 18.12 69.7774 18.024C69.4334 17.936 69.1294 17.768 68.8654 17.52C68.6334 17.296 68.4494 17.06 68.3134 16.812C68.1854 16.564 68.0974 16.26 68.0494 15.9C68.0014 15.54 67.9774 15.088 67.9774 14.544V10.776C67.9774 10.48 67.9534 10.264 67.9054 10.128C67.8574 9.984 67.7614 9.888 67.6174 9.84C67.4814 9.784 67.2774 9.752 67.0054 9.744V9.504C67.1734 9.512 67.3934 9.52 67.6654 9.528C67.9374 9.536 68.2294 9.54 68.5414 9.54C68.8214 9.54 69.0974 9.536 69.3694 9.528C69.6494 9.52 69.8814 9.512 70.0654 9.504V9.744C69.7934 9.752 69.5854 9.784 69.4414 9.84C69.3054 9.888 69.2134 9.984 69.1654 10.128C69.1174 10.264 69.0934 10.48 69.0934 10.776V14.748C69.0934 15.156 69.1134 15.544 69.1534 15.912C69.1934 16.272 69.2734 16.592 69.3934 16.872C69.5214 17.144 69.7134 17.36 69.9694 17.52C70.2254 17.672 70.5654 17.748 70.9894 17.748C71.5974 17.748 72.0654 17.616 72.3934 17.352C72.7294 17.08 72.9614 16.708 73.0894 16.236C73.2254 15.764 73.2934 15.232 73.2934 14.64V10.896C73.2934 10.6 73.2574 10.372 73.1854 10.212C73.1214 10.052 73.0094 9.936 72.8494 9.864C72.6894 9.792 72.4734 9.752 72.2014 9.744V9.504C72.3454 9.512 72.5334 9.52 72.7654 9.528C73.0054 9.536 73.2254 9.54 73.4254 9.54C73.6334 9.54 73.8374 9.536 74.0374 9.528C74.2454 9.52 74.4134 9.512 74.5414 9.504ZM83.0331 9.504C83.0011 9.784 82.9771 10.056 82.9611 10.32C82.9531 10.584 82.9491 10.784 82.9491 10.92C82.9491 11.064 82.9531 11.204 82.9611 11.34C82.9691 11.468 82.9771 11.576 82.9851 11.664H82.7091C82.6611 11.192 82.5931 10.82 82.5051 10.548C82.4171 10.268 82.2651 10.072 82.0491 9.96C81.8411 9.84 81.5251 9.78 81.1011 9.78H80.1051C79.8331 9.78 79.6251 9.804 79.4811 9.852C79.3451 9.892 79.2531 9.984 79.2051 10.128C79.1571 10.264 79.1331 10.48 79.1331 10.776V16.728C79.1331 17.016 79.1571 17.232 79.2051 17.376C79.2531 17.52 79.3451 17.616 79.4811 17.664C79.6251 17.704 79.8331 17.724 80.1051 17.724H80.9811C81.4851 17.724 81.8651 17.656 82.1211 17.52C82.3851 17.384 82.5731 17.164 82.6851 16.86C82.8051 16.548 82.8931 16.128 82.9491 15.6H83.2251C83.2011 15.816 83.1891 16.104 83.1891 16.464C83.1891 16.616 83.1931 16.836 83.2011 17.124C83.2171 17.404 83.2411 17.696 83.2731 18C82.8651 17.984 82.4051 17.976 81.8931 17.976C81.3811 17.968 80.9251 17.964 80.5251 17.964C80.3491 17.964 80.1211 17.964 79.8411 17.964C79.5691 17.964 79.2731 17.968 78.9531 17.976C78.6331 17.976 78.3091 17.98 77.9811 17.988C77.6531 17.988 77.3411 17.992 77.0451 18V17.76C77.3171 17.744 77.5211 17.712 77.6571 17.664C77.8011 17.616 77.8971 17.52 77.9451 17.376C77.9931 17.232 78.0171 17.016 78.0171 16.728V10.776C78.0171 10.48 77.9931 10.264 77.9451 10.128C77.8971 9.984 77.8011 9.888 77.6571 9.84C77.5211 9.784 77.3171 9.752 77.0451 9.744V9.504C77.3411 9.512 77.6531 9.52 77.9811 9.528C78.3091 9.528 78.6331 9.532 78.9531 9.54C79.2731 9.54 79.5691 9.54 79.8411 9.54C80.1211 9.54 80.3491 9.54 80.5251 9.54C80.8931 9.54 81.3091 9.54 81.7731 9.54C82.2451 9.532 82.6651 9.52 83.0331 9.504ZM80.9691 13.608C80.9691 13.608 80.9691 13.648 80.9691 13.728C80.9691 13.808 80.9691 13.848 80.9691 13.848H78.7731C78.7731 13.848 78.7731 13.808 78.7731 13.728C78.7731 13.648 78.7731 13.608 78.7731 13.608H80.9691ZM81.3171 12.024C81.2851 12.48 81.2691 12.828 81.2691 13.068C81.2771 13.308 81.2811 13.528 81.2811 13.728C81.2811 13.928 81.2851 14.148 81.2931 14.388C81.3011 14.628 81.3211 14.976 81.3531 15.432H81.0771C81.0451 15.176 81.0051 14.928 80.9571 14.688C80.9171 14.44 80.8211 14.24 80.6691 14.088C80.5251 13.928 80.2771 13.848 79.9251 13.848V13.608C80.1891 13.608 80.3891 13.556 80.5251 13.452C80.6691 13.34 80.7731 13.2 80.8371 13.032C80.9011 12.864 80.9451 12.692 80.9691 12.516C80.9931 12.332 81.0171 12.168 81.0411 12.024H81.3171ZM88.6056 9.372C89.0056 9.372 89.3096 9.42 89.5176 9.516C89.7256 9.604 89.9096 9.704 90.0696 9.816C90.1656 9.872 90.2416 9.916 90.2976 9.948C90.3616 9.972 90.4216 9.984 90.4776 9.984C90.5576 9.984 90.6136 9.94 90.6456 9.852C90.6856 9.764 90.7176 9.632 90.7416 9.456H91.0176C91.0096 9.592 90.9976 9.756 90.9816 9.948C90.9736 10.132 90.9656 10.38 90.9576 10.692C90.9576 10.996 90.9576 11.4 90.9576 11.904H90.6816C90.6576 11.52 90.5736 11.152 90.4296 10.8C90.2856 10.448 90.0736 10.16 89.7936 9.936C89.5216 9.712 89.1616 9.6 88.7136 9.6C88.2896 9.6 87.9376 9.728 87.6576 9.984C87.3856 10.24 87.2496 10.576 87.2496 10.992C87.2496 11.352 87.3416 11.656 87.5256 11.904C87.7096 12.144 87.9536 12.364 88.2576 12.564C88.5696 12.756 88.9056 12.964 89.2656 13.188C89.6816 13.444 90.0496 13.7 90.3696 13.956C90.6976 14.204 90.9536 14.48 91.1376 14.784C91.3296 15.088 91.4256 15.456 91.4256 15.888C91.4256 16.4 91.3096 16.824 91.0776 17.16C90.8456 17.496 90.5376 17.748 90.1536 17.916C89.7696 18.084 89.3456 18.168 88.8816 18.168C88.4576 18.168 88.1216 18.12 87.8736 18.024C87.6256 17.928 87.4136 17.828 87.2376 17.724C87.0616 17.612 86.9256 17.556 86.8296 17.556C86.7496 17.556 86.6896 17.6 86.6496 17.688C86.6176 17.776 86.5896 17.908 86.5656 18.084H86.2896C86.3056 17.916 86.3136 17.72 86.3136 17.496C86.3216 17.264 86.3256 16.964 86.3256 16.596C86.3336 16.228 86.3376 15.764 86.3376 15.204H86.6136C86.6456 15.684 86.7336 16.132 86.8776 16.548C87.0296 16.964 87.2576 17.3 87.5616 17.556C87.8736 17.804 88.2856 17.928 88.7976 17.928C89.0616 17.928 89.3096 17.876 89.5416 17.772C89.7816 17.66 89.9776 17.488 90.1296 17.256C90.2816 17.016 90.3576 16.708 90.3576 16.332C90.3576 16.004 90.2776 15.72 90.1176 15.48C89.9656 15.232 89.7496 15.004 89.4696 14.796C89.1896 14.58 88.8616 14.36 88.4856 14.136C88.1096 13.904 87.7576 13.668 87.4296 13.428C87.1016 13.188 86.8376 12.912 86.6376 12.6C86.4456 12.28 86.3496 11.896 86.3496 11.448C86.3496 10.976 86.4536 10.588 86.6616 10.284C86.8776 9.972 87.1576 9.744 87.5016 9.6C87.8456 9.448 88.2136 9.372 88.6056 9.372ZM100.798 9.504C100.766 9.808 100.742 10.104 100.726 10.392C100.718 10.672 100.714 10.888 100.714 11.04C100.714 11.232 100.718 11.412 100.726 11.58C100.734 11.748 100.742 11.896 100.75 12.024H100.474C100.418 11.464 100.342 11.024 100.246 10.704C100.15 10.376 99.9821 10.14 99.7421 9.996C99.5021 9.852 99.1301 9.78 98.6261 9.78H97.9781V16.608C97.9781 16.928 98.0061 17.168 98.0621 17.328C98.1261 17.488 98.2461 17.596 98.4221 17.652C98.5981 17.708 98.8541 17.744 99.1901 17.76V18C98.9821 17.984 98.7181 17.976 98.3981 17.976C98.0781 17.968 97.7541 17.964 97.4261 17.964C97.0661 17.964 96.7261 17.968 96.4061 17.976C96.0941 17.976 95.8421 17.984 95.6501 18V17.76C95.9861 17.744 96.2421 17.708 96.4181 17.652C96.5941 17.596 96.7101 17.488 96.7661 17.328C96.8301 17.168 96.8621 16.928 96.8621 16.608V9.78H96.2141C95.7181 9.78 95.3461 9.852 95.0981 9.996C94.8581 10.14 94.6901 10.376 94.5941 10.704C94.4981 11.024 94.4221 11.464 94.3661 12.024H94.0901C94.1061 11.896 94.1141 11.748 94.1141 11.58C94.1221 11.412 94.1261 11.232 94.1261 11.04C94.1261 10.888 94.1181 10.672 94.1021 10.392C94.0941 10.104 94.0741 9.808 94.0421 9.504C94.3781 9.512 94.7421 9.52 95.1341 9.528C95.5341 9.536 95.9341 9.54 96.3341 9.54C96.7341 9.54 97.0981 9.54 97.4261 9.54C97.7541 9.54 98.1141 9.54 98.5061 9.54C98.9061 9.54 99.3061 9.536 99.7061 9.528C100.106 9.52 100.47 9.512 100.798 9.504Z" fill="#555248"/>
<path d="M21.6818 15.534C21.1028 17.3753 19.8142 19.6573 17.2917 21.0099C15.7282 21.8482 14.0306 22.1828 12.3831 22.0705L12.4257 3.94257C12.4778 3.93828 12.5301 3.93438 12.5825 3.93089C13.0681 3.92735 13.6665 3.94898 14.28 4.01869C14.5536 4.04978 14.8247 4.08987 15.0863 4.13997C15.6587 4.27555 16.2174 4.46619 16.754 4.70933C18.5103 5.50517 20.0281 6.86288 21.0099 8.69398C21.8203 10.2052 22.1598 11.8416 22.0803 13.4366C22.0472 13.9742 21.9268 14.7152 21.6818 15.534ZM11.4254 4.07455L11.3834 21.9466C8.74393 21.4703 6.34092 19.8376 4.97576 17.2916C2.60158 12.8639 4.2663 7.34991 8.69401 4.97573C9.26708 4.66844 10.2463 4.28789 11.4254 4.07455Z" stroke="url(#paint0_linear_0_104)"/>
<defs>
<linearGradient id="paint0_linear_0_104" x1="3.75599" y1="11.7231" x2="23.9646" y2="12.9918" gradientUnits="userSpaceOnUse">
<stop offset="0.288448" stop-color="#555248"/>
<stop offset="0.780176" stop-color="#1B1A17" stop-opacity="0"/>
</linearGradient>
</defs>
</svg>
